# xmcd CD database file
#
# Track frame offsets:
#	150
#	17362
#	33960
#	49090
#	82445
#	99710
#	117835
#	133175
#	150697
#	168675
#	196152
#	209422
#	219652
#	235457
#	253655
#	269157
#	286767
#	303255
#
# Disc length: 4242 seconds
#
# Revision: 0
# Processed by: cddbd v1.5.2PL0 Copyright (c) Steve Scherf et al.
# Submitted via: CDex 1.51
#
DISCID=0d109012
DTITLE=CHICAGO soundtrack - chicago
DYEAR=2002
DGENRE=Jazz
TTITLE0=chicago10
TTITLE1=chicago2
TTITLE2=chicago3
TTITLE3=chicago4
TTITLE4=chicago5
TTITLE5=chicago6
TTITLE6=chicago7
TTITLE7=chicago8
TTITLE8=chicago9
TTITLE9=chicago1
TTITLE10=chicago11
TTITLE11=chicago12
TTITLE12=chicago13
TTITLE13=chicago14
TTITLE14=chicago15
TTITLE15=chicago16
TTITLE16=chicago17
TTITLE17=chicago18
EXTD=YEAR: 2002
EXTT0=
EXTT1=
EXTT2=
EXTT3=
EXTT4=
EXTT5=
EXTT6=
EXTT7=
EXTT8=
EXTT9=
EXTT10=
EXTT11=
EXTT12=
EXTT13=
EXTT14=
EXTT15=
EXTT16=
EXTT17=
PLAYORDER=
